<?xml version="1.0" encoding="utf-8"?>
<!-- Generator: Adobe Illustrator 23.0.2, SVG Export Plug-In . SVG Version: 6.00 Build 0)  -->
<svg version="1.1"
	 id="Layer_1" inkscape:version="0.92.4 (5da689c313, 2019-01-14)" sodipodi:docname="add_tag.svg" xmlns:cc="http://creativecommons.org/ns#" xmlns:dc="http://purl.org/dc/elements/1.1/" xmlns:inkscape="http://www.inkscape.org/namespaces/inkscape" xmlns:rdf="http://www.w3.org/1999/02/22-rdf-syntax-ns#" xmlns:sodipodi="http://sodipodi.sourceforge.net/DTD/sodipodi-0.dtd" xmlns:svg="http://www.w3.org/2000/svg"
	 xmlns="http://www.w3.org/2000/svg" xmlns:xlink="http://www.w3.org/1999/xlink" x="0px" y="0px" viewBox="0 0 48 48"
	 style="enable-background:new 0 0 48 48;" xml:space="preserve">
<style type="text/css">
	.st0{fill:none;stroke:#0179CB;stroke-width:3.5;}
	.st1{fill:none;stroke:#0179CB;stroke-width:3;}
</style>
<sodipodi:namedview  bordercolor="#666666" borderopacity="1" gridtolerance="10" guidetolerance="10" id="namedview13" inkscape:current-layer="Layer_1" inkscape:cx="12" inkscape:cy="12" inkscape:pageopacity="0" inkscape:pageshadow="2" inkscape:window-height="2035" inkscape:window-maximized="1" inkscape:window-width="3240" inkscape:window-x="-13" inkscape:window-y="-13" inkscape:zoom="9.8333333" objecttolerance="10" pagecolor="#ffffff" showgrid="false">
	</sodipodi:namedview>
<path id="path4" inkscape:connector-curvature="0" class="st0" d="M1.5,4.7v16.8l2.9,3.1c2.9-2.2,7-3.3,11.1-2.4
	c5.7,1.3,10.2,6.2,10.6,11.9c0.2,3.5-0.7,6.6-2.7,9.1l1.8,1.8c1.8,1.8,4.7,1.8,6.6,0l13.3-13c1.8-1.8,1.8-4.6,0-6.4L21.6,1.8H4.4
	C2.9,1.8,1.5,3.1,1.5,4.7z"/>
<ellipse id="ellipse6" class="st0" cx="12.3" cy="35.5" rx="8.2" ry="8.2"/>
<line id="line8" class="st1" x1="7.8" y1="35.5" x2="16.7" y2="35.5"/>
<line id="line10" class="st1" x1="12.3" y1="39.9" x2="12.3" y2="31.1"/>
<ellipse class="st1" cx="9.4" cy="9.5" rx="3.4" ry="3.3"/>
</svg>
