<svg xmlns="http://www.w3.org/2000/svg" viewBox="0 0 64 64" x="0px" y="0px"><title>Face ID</title><g data-name="Layer 2" fill="#0179cb" stroke="#0179cb" stroke-width="3"><g data-name="Layer 4"><path d="M62,0H46a2,2,0,0,0,0,4H60V18a2,2,0,0,0,4,0V2A2,2,0,0,0,62,0Z"/><path d="M64,62V46a2,2,0,0,0-4,0V60H46a2,2,0,0,0,0,4H62A2,2,0,0,0,64,62Z"/><path d="M2,64H18a2,2,0,1,0,0-4H4V46a2,2,0,0,0-4,0V62A2,2,0,0,0,2,64Z"/><path d="M0,2V18a2,2,0,0,0,4,0V4H18a2,2,0,0,0,0-4H2A2,2,0,0,0,0,2Z"/><path d="M32,48a23.91,23.91,0,0,1-13.09-3.89,2,2,0,0,1,2.19-3.35,20,20,0,0,0,21.81,0,2,2,0,0,1,2.19,3.35A23.91,23.91,0,0,1,32,48Z"/><path d="M20,26a2,2,0,0,1-2-2V20a2,2,0,0,1,4,0v4A2,2,0,0,1,20,26Z"/><path d="M44,26a2,2,0,0,1-2-2V20a2,2,0,0,1,4,0v4A2,2,0,0,1,44,26Z"/><path d="M29,35.26a2,2,0,0,1,0-4,2,2,0,0,0,2-2V24a2,2,0,0,1,4,0v5.26A6,6,0,0,1,29,35.26Z"/></g></g></svg>
