<?xml version="1.0" encoding="utf-8"?>
<!-- Generator: Adobe Illustrator 23.0.2, SVG Export Plug-In . SVG Version: 6.00 Build 0)  -->
<svg version="1.1" id="Layer_1" xmlns="http://www.w3.org/2000/svg" xmlns:xlink="http://www.w3.org/1999/xlink" x="0px" y="0px"
	 viewBox="0 0 48 48" style="enable-background:new 0 0 48 48;" xml:space="preserve">
<style type="text/css">
	.st0{fill:#0179CB;}
</style>
<path class="st0" d="M45,18H30V3c0-1.7-1.3-3-3-3h-6c-1.7,0-3,1.3-3,3v15H3c-1.7,0-3,1.3-3,3v6c0,1.7,1.3,3,3,3h15v15
	c0,1.7,1.3,3,3,3h6c1.7,0,3-1.3,3-3V30h15c1.7,0,3-1.3,3-3v-6C48,19.3,46.7,18,45,18z"/>
</svg>
