<?xml version="1.0" encoding="utf-8"?>
<!-- Generator: Adobe Illustrator 23.0.2, SVG Export Plug-In . SVG Version: 6.00 Build 0)  -->
<svg version="1.1" id="Layer_1" xmlns="http://www.w3.org/2000/svg" xmlns:xlink="http://www.w3.org/1999/xlink" x="0px" y="0px"
	 viewBox="0 0 512 512" style="enable-background:new 0 0 512 512;" xml:space="preserve">
<style type="text/css">
	.st0{fill:#1D1D1B;}
</style>
<g>
	<path class="st0" d="M262.8,502c-67.6,0-131.2-26.3-178.8-74c-98.6-98.6-98.6-259.1,0-357.8c26.1-26.1,57.9-46,94.5-58.9
		c2.4-0.9,5-1.3,7.6-1.3c6.1,0,11.8,2.4,16.1,6.7c6.3,6.3,8.4,15.6,5.5,23.8c-27.1,76.3-8.7,158.9,48,215.7
		c38.9,38.9,90.4,60.3,145,60.3c23.9,0,47.7-4.1,70.6-12.2c2.4-0.9,5-1.3,7.6-1.3c6.1,0,11.9,2.4,16.2,6.7
		c6.2,6.2,8.3,15.5,5.4,23.7c-12.9,36.5-32.7,68.3-58.9,94.6C394,475.7,330.5,502,262.8,502z M133.9,87
		c-6.5,5.1-12.2,10.2-17.6,15.6c-39.1,39.1-60.6,91.1-60.6,146.5c0,55.4,21.5,107.5,60.6,146.5c38.7,38.7,90.8,60,146.6,60
		c64.4,0,123.5-28.3,162.1-77.7l13.7-17.5l-22.2,1.4c-5.2,0.3-10.5,0.5-15.8,0.5c-66.8,0-129.8-26.2-177.4-73.8
		c-25.8-25.8-45.2-55.9-57.8-89.4c-12.5-33.1-17.6-68-15.4-103.6l1.4-22.4L133.9,87z"/>
</g>
</svg>
