<?xml version="1.0" encoding="utf-8"?>
<!-- Generator: Adobe Illustrator 23.0.2, SVG Export Plug-In . SVG Version: 6.00 Build 0)  -->
<svg version="1.1" id="Layer_1" xmlns="http://www.w3.org/2000/svg" xmlns:xlink="http://www.w3.org/1999/xlink" x="0px" y="0px"
	 viewBox="0 0 512 512" style="enable-background:new 0 0 512 512;" xml:space="preserve">
<style type="text/css">
	.st0{fill:#0179CB;}
</style>
<g>
	<g>
		<g>
			<g>
				<path class="st0" d="M256,511.8c-14.9,0-27.1-12.1-27.1-27.1v-38.1c0-14.9,12.1-27.1,27.1-27.1c14.9,0,27.1,12.1,27.1,27.1v38.1
					C283.1,499.7,270.9,511.8,256,511.8z M94.1,444.8c-7.2,0-14-2.8-19.1-7.9c-5.1-5.1-7.9-11.9-7.9-19.1c0-7.2,2.8-14,7.9-19.1
					l27-27c5.1-5.1,11.9-7.9,19.1-7.9c7.2,0,14,2.8,19.2,7.9c10.5,10.5,10.5,27.7,0,38.3l-27,27C108.2,442,101.4,444.8,94.1,444.8z
					 M417.9,444.8c-7.2,0-14-2.8-19.1-7.9l-27-27c-5.1-5.1-7.9-11.9-7.9-19.1c0-7.2,2.8-14,7.9-19.2c5.1-5.1,11.9-7.9,19.1-7.9
					c7.2,0,14,2.8,19.1,7.9l27,27c5.1,5.1,7.9,11.9,7.9,19.1s-2.8,14-7.9,19.1C431.9,442,425.1,444.8,417.9,444.8z M256,397.4
					c-78,0-141.5-63.5-141.5-141.4S178,114.6,256,114.6c78,0,141.5,63.5,141.5,141.4S334,397.4,256,397.4z M256,168.7
					c-48.2,0-87.4,39.2-87.4,87.3c0,48.1,39.2,87.3,87.4,87.3c48.2,0,87.4-39.2,87.4-87.3C343.4,207.9,304.2,168.7,256,168.7z
					 M446.8,283.1c-14.9,0-27.1-12.1-27.1-27.1s12.1-27.1,27.1-27.1h38.2c14.9,0,27.1,12.1,27.1,27.1s-12.1,27.1-27.1,27.1H446.8z
					 M27.1,283.1C12.1,283.1,0,270.9,0,256s12.1-27.1,27.1-27.1h38.2c14.9,0,27.1,12.1,27.1,27.1s-12.1,27.1-27.1,27.1H27.1z
					 M390.9,148.3c-7.2,0-14-2.8-19.1-7.9c-5.1-5.1-7.9-11.9-7.9-19.1s2.8-14,7.9-19.1l27-27c5.1-5.1,11.9-7.9,19.1-7.9
					s14,2.8,19.1,7.9c5.1,5.1,7.9,11.9,7.9,19.1s-2.8,14-7.9,19.1l-27,27C404.9,145.4,398.1,148.3,390.9,148.3z M121.1,148.3
					c-7.2,0-14-2.8-19.1-7.9l-27-27c-5.1-5.1-7.9-11.9-7.9-19.1s2.8-14,7.9-19.1c5.1-5.1,11.9-7.9,19.1-7.9s14,2.8,19.1,7.9l27,27
					c5.1,5.1,7.9,11.9,7.9,19.1s-2.8,14-7.9,19.1C135.1,145.4,128.3,148.3,121.1,148.3z M256,92.4c-14.9,0-27.1-12.1-27.1-27.1V27.2
					c0-14.9,12.1-27.1,27.1-27.1c14.9,0,27.1,12.1,27.1,27.1v38.1C283.1,80.3,270.9,92.4,256,92.4z"/>
			</g>
		</g>
	</g>
</g>
</svg>
