<?xml version="1.0" encoding="utf-8"?>
<!-- Generator: Adobe Illustrator 23.0.2, SVG Export Plug-In . SVG Version: 6.00 Build 0)  -->
<svg version="1.1" id="Layer_1" xmlns="http://www.w3.org/2000/svg" xmlns:xlink="http://www.w3.org/1999/xlink" x="0px" y="0px"
	 viewBox="0 0 48 48" style="enable-background:new 0 0 48 48;" xml:space="preserve">
<style type="text/css">
	.st0{fill:#0179CB;}
</style>
<g>
	<path class="st0" d="M46,8V4.2C46,3,45,2,43.8,2H19.6L18,0H2.2C1,0,0,1,0,2.2v43.6C0,47,1,48,2.2,48h43.6c1.2,0,2.2-1,2.2-2.2V10.2
		C48,9,47.2,8.2,46,8z M44,44H4V4h12l6,8h22V44z M44,8H24l-3-4h23V8z"/>
	<polygon class="st0" points="22,18 22,26 14,26 14,30 22,30 22,38 26,38 26,30 34,30 34,26 26,26 26,18 	"/>
</g>
</svg>
