<?xml version="1.0" encoding="utf-8"?>
<!-- Generator: Adobe Illustrator 23.0.2, SVG Export Plug-In . SVG Version: 6.00 Build 0)  -->
<svg version="1.1" id="zoom_in" xmlns="http://www.w3.org/2000/svg" xmlns:xlink="http://www.w3.org/1999/xlink" x="0px" y="0px"
	 viewBox="0 0 96 96" style="enable-background:new 0 0 96 96;" xml:space="preserve">
<style type="text/css">
	.st0{fill:#0179CB;}
</style>
<g>
	<path class="st0" d="M90.8,89L68.1,66.3c4.9-6.2,7.9-14,7.9-22.5c0-19.9-16.1-36-36-36S4,24,4,43.9s16.1,36,36,36
		c8.5,0,16.3-3,22.5-7.9l22.7,22.7c1.6,1.6,4.1,1.6,5.7,0C92.4,93.1,92.4,90.6,90.8,89z M40,71.9c-15.5,0-28-12.5-28-28
		s12.5-28,28-28s28,12.5,28,28S55.5,71.9,40,71.9z"/>
	<path class="st0" d="M52,39.8h-8v-8c0-2.2-1.8-4-4-4s-4,1.8-4,4v8h-8c-2.2,0-4,1.8-4,4s1.8,4,4,4h8v8c0,2.2,1.8,4,4,4s4-1.8,4-4v-8
		h8c2.2,0,4-1.8,4-4S54.2,39.8,52,39.8z"/>
</g>
</svg>
